<?xml version="1.0" encoding="UTF-8" standalone="no"?>
<svg width="179px" height="330px" viewBox="0 0 179 330" version="1.1" xmlns="http://www.w3.org/2000/svg" xmlns:xlink="http://www.w3.org/1999/xlink" xmlns:sketch="http://www.bohemiancoding.com/sketch/ns">
    <!-- Generator: Sketch 3.1 (8751) - http://www.bohemiancoding.com/sketch -->
    <title>Untitled 2</title>
    <desc>Created with Sketch.</desc>
    <defs>
        <linearGradient x1="0%" y1="0%" x2="0%" y2="100%" id="linearGradient-1">
            <stop stop-color="#E2FFFF" offset="0%"></stop>
            <stop stop-color="#FFFFFF" offset="100%"></stop>
        </linearGradient>
        <linearGradient x1="0%" y1="0%" x2="0%" y2="100%" id="linearGradient-2">
            <stop stop-color="#E2FFFF" offset="0%"></stop>
            <stop stop-color="#ABEEFF" offset="100%"></stop>
        </linearGradient>
        <linearGradient x1="0%" y1="0%" x2="0%" y2="100%" id="linearGradient-3">
            <stop stop-color="#63B1FF" offset="0%"></stop>
            <stop stop-color="#2E74E8" offset="100%"></stop>
        </linearGradient>
        <linearGradient x1="0%" y1="0%" x2="0%" y2="100%" id="linearGradient-4">
            <stop stop-color="#63B1FF" offset="0%"></stop>
            <stop stop-color="#89CCFF" offset="100%"></stop>
        </linearGradient>
        <linearGradient x1="0%" y1="0%" x2="0%" y2="100%" id="linearGradient-5">
            <stop stop-color="#FFFFFF" offset="0%"></stop>
            <stop stop-color="#FFFFFF" offset="100%"></stop>
        </linearGradient>
        <linearGradient x1="0%" y1="0%" x2="0%" y2="100%" id="linearGradient-6">
            <stop stop-color="#3E92E3" offset="0%"></stop>
            <stop stop-color="#75AFE6" offset="100%"></stop>
        </linearGradient>
        <linearGradient x1="0%" y1="0%" x2="0%" y2="100%" id="linearGradient-7">
            <stop stop-color="#184590" offset="0%"></stop>
            <stop stop-color="#0F3676" offset="100%"></stop>
        </linearGradient>
        <linearGradient x1="0%" y1="0%" x2="0%" y2="100%" id="linearGradient-8">
            <stop stop-color="#2C8FFB" offset="0%"></stop>
            <stop stop-color="#1761D7" offset="100%"></stop>
        </linearGradient>
        <linearGradient x1="0%" y1="0%" x2="0%" y2="100%" id="linearGradient-9">
            <stop stop-color="#1851AF" offset="0%"></stop>
            <stop stop-color="#1761D7" offset="100%"></stop>
        </linearGradient>
        <linearGradient x1="0%" y1="0%" x2="0%" y2="100%" id="linearGradient-10">
            <stop stop-color="#184590" offset="0%"></stop>
            <stop stop-color="#15356E" offset="100%"></stop>
        </linearGradient>
        <linearGradient x1="0%" y1="0%" x2="0%" y2="100%" id="linearGradient-11">
            <stop stop-color="#184590" offset="0%"></stop>
            <stop stop-color="#1761D7" offset="100%"></stop>
        </linearGradient>
    </defs>
    <g id="Page-1" stroke="none" stroke-width="1" fill="none" fill-rule="evenodd" sketch:type="MSPage">
        <g id="iceberg" sketch:type="MSLayerGroup" transform="translate(-84.000000, 0.000000)">
            <path d="M257.3669,71.3628 L84.4567,54.4301 L100.4806,71.409 L257.3669,71.3628 L257.3669,71.3628 Z" id="path22" sketch:type="MSShapeGroup"></path>
            <path d="M215.8254,0.0696 L152.66,60.2144 L226.8331,55.1233 L215.8254,0.0696 L215.8254,0.0696 Z" id="path32" fill="url(#linearGradient-1)" sketch:type="MSShapeGroup"></path>
            <path d="M215.8254,0.0696 L262.5173,37.0043 L257.3669,71.3628 L226.8331,55.1233 L215.8254,0.0696 L215.8254,0.0696 Z" id="path42" fill="url(#linearGradient-2)" sketch:type="MSShapeGroup"></path>
            <path d="M84.4567,54.4301 L100.4806,71.409 L87.195,71.409 L84.4567,54.4301 L84.4567,54.4301 Z" id="path44" fill="#3C8FFF" sketch:type="MSShapeGroup"></path>
            <path d="M152.66,60.2144 L150.3852,71.409 L100.4806,71.409 L84.4567,54.4301 L152.66,60.2144 L152.66,60.2144 Z" id="path54" fill="url(#linearGradient-1)" sketch:type="MSShapeGroup"></path>
            <path d="M215.8254,0.0696 L152.66,60.2144 L84.4567,54.4301 L150.8061,40.4674 L215.8254,0.0696 L215.8254,0.0696 Z" id="path64" fill="url(#linearGradient-3)" sketch:type="MSShapeGroup"></path>
            <path d="M226.8331,55.1233 L257.3669,71.3628 L217.2205,71.3747 L226.8331,55.1233 L226.8331,55.1233 Z" id="path74" fill="url(#linearGradient-4)" sketch:type="MSShapeGroup"></path>
            <path d="M156.333,71.409 L152.66,60.2144 L181.0939,71.3636 L156.333,71.409 L156.333,71.409 Z" id="path84" fill="url(#linearGradient-3)" sketch:type="MSShapeGroup"></path>
            <path d="M84.4567,54.4301 L100.4806,71.409 L87.195,71.409 L84.4567,54.4301 L84.4567,54.4301 Z" id="path86" fill="#2E74E8" sketch:type="MSShapeGroup"></path>
            <path d="M150.8061,40.4674 L152.66,60.2144 L84.4567,54.4301 L150.8061,40.4674 L150.8061,40.4674 Z" id="path96" fill="url(#linearGradient-4)" sketch:type="MSShapeGroup"></path>
            <path d="M262.5173,37.0043 L226.8339,55.1233 L257.3677,71.3628 L262.5173,37.0043 L262.5173,37.0043 Z" id="path106" fill="url(#linearGradient-5)" sketch:type="MSShapeGroup"></path>
            <path d="M156.333,71.409 L152.66,60.2144 L150.3852,71.409 L156.333,71.409 L156.333,71.409 Z" id="path116" fill="url(#linearGradient-2)" sketch:type="MSShapeGroup"></path>
            <path d="M257.3669,71.3628 L256.7573,131.148 L210.1614,177.9336 L210.2603,82.7979 L257.3669,71.3628 L257.3669,71.3628 Z" id="path126" fill="url(#linearGradient-6)" sketch:type="MSShapeGroup"></path>
            <path d="M140.2916,113.5914 L121.7349,233.524 L96.8635,131.3663 L140.2916,113.5914 L140.2916,113.5914 Z" id="path136" fill="url(#linearGradient-7)" sketch:type="MSShapeGroup"></path>
            <path d="M150.3852,71.409 L140.2916,113.5914 L100.4806,71.409 L150.3852,71.409 L150.3852,71.409 Z" id="path146" fill="url(#linearGradient-8)" sketch:type="MSShapeGroup"></path>
            <path d="M210.1605,177.9336 L224.5755,220.4284 L195.568,330.0112 L210.1605,177.9336 L210.1605,177.9336 Z" id="path156" fill="url(#linearGradient-8)" sketch:type="MSShapeGroup"></path>
            <path d="M257.3669,71.3628 L210.2603,82.7979 L217.2205,71.3756 L257.3669,71.3628 L257.3669,71.3628 Z" id="path166" fill="url(#linearGradient-8)" sketch:type="MSShapeGroup"></path>
            <path d="M177.8885,138.0108 L156.333,71.409 L181.0939,71.3636 L210.2603,82.7979 L177.8885,138.0108 L177.8885,138.0108 Z" id="path176" fill="url(#linearGradient-9)" sketch:type="MSShapeGroup"></path>
            <path d="M177.8876,138.0108 L140.2916,113.5914 L121.7349,233.524 L177.8876,138.0108 L177.8876,138.0108 Z" id="path186" fill="url(#linearGradient-8)" sketch:type="MSShapeGroup"></path>
            <path d="M210.2603,82.7979 L121.7349,233.524 L210.1614,177.9336 L210.2603,82.7979 L210.2603,82.7979 Z" id="path196" fill="url(#linearGradient-10)" sketch:type="MSShapeGroup"></path>
            <path d="M100.4806,71.409 L140.2916,113.5914 L96.8635,131.3663 L87.195,71.409 L100.4806,71.409 L100.4806,71.409 Z" id="path206" fill="url(#linearGradient-10)" sketch:type="MSShapeGroup"></path>
            <path d="M257.3669,71.3628 L210.2603,82.7979 L256.7573,131.148 L257.3669,71.3628 L257.3669,71.3628 Z" id="path216" fill="url(#linearGradient-9)" sketch:type="MSShapeGroup"></path>
            <path d="M140.2916,113.5914 L177.8885,138.0108 L156.333,71.409 L150.3852,71.409 L140.2916,113.5914 L140.2916,113.5914 Z" id="path226" fill="url(#linearGradient-6)" sketch:type="MSShapeGroup"></path>
            <path d="M120.817,233.4076 L210.1614,177.9336 L150.7273,270.9029 L120.817,233.4076 L120.817,233.4076 Z" id="path236" fill="url(#linearGradient-11)" sketch:type="MSShapeGroup"></path>
            <path d="M150.7273,270.9029 L195.5681,330.0112 L210.1597,177.9336 L150.7273,270.9029 L150.7273,270.9029 Z" id="path246" fill="url(#linearGradient-10)" sketch:type="MSShapeGroup"></path>
            <path d="M256.7573,131.148 L224.5755,220.4284 L210.1614,177.9336 L256.7573,131.148 L256.7573,131.148 Z" id="path256" fill="url(#linearGradient-6)" sketch:type="MSShapeGroup"></path>
            <path d="M152.6599,60.2143 L226.833,55.1233 L217.2204,71.3746 L181.1512,71.3854 L152.6599,60.2143 L152.6599,60.2143 Z" id="path266" fill="url(#linearGradient-3)" sketch:type="MSShapeGroup"></path>
            <path d="M210.2602,82.7979 L217.2204,71.3746 L181.1512,71.3854 L210.2602,82.7979 L210.2602,82.7979 Z" id="path276" fill="url(#linearGradient-8)" sketch:type="MSShapeGroup"></path>
        </g>
    </g>
</svg>