<?xml version="1.0" encoding="UTF-8" standalone="no"?>
<svg width="2223px" height="569px" viewBox="0 0 2223 569" version="1.1" xmlns="http://www.w3.org/2000/svg" xmlns:xlink="http://www.w3.org/1999/xlink" xmlns:sketch="http://www.bohemiancoding.com/sketch/ns">
    <!-- Generator: Sketch 3.0.4 (8053) - http://www.bohemiancoding.com/sketch -->
    <title>mozilla</title>
    <desc>Created with Sketch.</desc>
    <defs></defs>
    <g id="Page-1" stroke="none" stroke-width="1" fill="none" fill-rule="evenodd" sketch:type="MSPage">
        <g id="Mozilla_Corporation_logo" sketch:type="MSLayerGroup" fill="#AB0007">
            <g id="layer1" sketch:type="MSShapeGroup">
                <path d="M2160.995,565.22475 C2142.2303,554.80048 2130.3223,544.76194 2121.8089,532.19059 L2116.8589,524.88117 L2109.6794,531.22889 C2099.6324,540.11201 2095.6633,543.06621 2086.5,548.48139 C2065.3006,561.00948 2036.8488,566.16192 2001.5,563.87434 C1928.3848,559.14272 1889.9772,524.08606 1884.9577,457.5 C1882.7241,427.86966 1887.6858,400.91466 1899.1755,380.26072 C1914.9168,351.964 1945.7254,332.18786 1989.0012,322.60126 C2011.1351,317.69808 2029.0884,315.91101 2062.3986,315.29528 L2093.2971,314.72413 L2092.6801,298.61206 C2092.3408,289.75043 2091.5864,279.67102 2091.0038,276.21339 C2087.9483,258.07985 2080.3048,248.90139 2066,246.18836 C2054.9319,244.08921 2049.8065,243.97241 2037.0683,245.52907 C2012.4229,248.54083 1986.732,258.62962 1955.0471,277.7387 C1946.5481,282.86447 1939.1137,286.87388 1938.5264,286.6485 C1937.3359,286.19166 1895.9817,216.87613 1896.0316,215.42121 C1896.1018,213.37598 1921.7426,199.24778 1940,191.19446 C1989.4327,169.3897 2020.3743,162 2062.2407,162 C2101.171,162 2128.0641,168.55423 2149.7771,183.33387 C2158.289,189.12778 2171.1069,202.36675 2175.767,210.17749 C2180.0504,217.35692 2185.3086,230.40372 2188.1892,241 L2190.5,249.5 L2190,308 C2189.725,340.175 2189.5,386.975 2189.5,412 C2189.5,463.30864 2189.5024,463.32905 2197.2674,478.5 C2200.6356,485.08069 2203.3938,488.50022 2212.814,497.77434 C2223.3325,508.1297 2224.1423,509.18933 2222.7496,510.77434 C2221.9156,511.72345 2210.1,525.325 2196.4929,541 C2182.8857,556.675 2171.2457,569.60114 2170.6263,569.72475 C2170.0068,569.84836 2165.6728,567.82336 2160.995,565.22475 L2160.995,565.22475 Z M2044.6725,487.98184 C2059.7556,486.09057 2072.2601,480.12762 2083.7379,469.35297 L2089.9729,463.5 L2090.6412,424.59003 L2091.3095,385.68005 L2075.123,386.37206 C2024.1123,388.55289 2005.0392,396.71646 1996.8,419.89536 C1994.2037,427.19971 1993.1951,446.43753 1995.006,454.11649 C1999.1156,471.54289 2012.9018,485.22975 2029,487.86564 C2032.025,488.36094 2034.9618,488.8188 2035.5262,488.8831 C2036.0907,488.94739 2040.2065,488.54183 2044.6725,487.98184 L2044.6725,487.98184 Z M1574.5354,558.41325 C1558.3484,555.89792 1544.3341,550.06264 1531.5299,540.50664 C1517.9063,530.33909 1509.8982,518.36089 1504.0364,499.38245 C1498.5694,481.68243 1498.7049,486.78673 1498.0135,272.5 C1497.3859,77.976764 1497.3351,74.054847 1495.1219,49.148731 C1493.8829,35.205533 1493.1287,23.538009 1493.4458,23.220899 C1494.358,22.308691 1592.3778,-0.015634462 1593.5758,0.41596168 C1594.7863,0.85205175 1596.6252,14.33382 1598.0204,33 C1600.0153,165.65459 1598.1636,298.34137 1599.9457,431 C1600.713,463.15511 1600.9897,467.05842 1602.8828,472.4266 C1607.5495,485.65998 1613.974,490.45221 1627,490.41617 C1631.125,490.40475 1635.136,490.19395 1635.9134,489.94771 C1637.2316,489.53017 1641.8114,503.84776 1652.7588,542.61067 L1654.767,549.72134 L1639.1335,553.82498 C1616.42,559.78705 1593.742,561.39782 1574.5354,558.41325 L1574.5354,558.41325 Z M1782.5,559.34412 C1769.3984,557.78848 1758.1402,554.53437 1747.5,549.22762 C1720.9034,535.96265 1707.9721,516.90736 1701.8782,482 C1701.0734,477.39029 1700.5526,418.2096 1700.0871,278.5 C1699.4331,82.222219 1699.4219,81.39452 1697.0371,52.728291 C1695.5745,35.148677 1695.0045,23.639598 1695.5717,23.141704 C1696.8008,22.062761 1795.0202,-0.31308824 1795.6709,0.33760762 C1796.7477,1.4144151 1798.9565,21.354969 1799.9535,39 C1802.5604,175.64545 1799.5054,312.35223 1801.9404,449 C1802.6163,463.48557 1803.2504,468.77042 1804.8629,473.35456 C1807.5685,481.04664 1811.3232,485.81306 1816.4706,488.09001 C1822.0981,490.57935 1830.9932,491.54664 1835.0981,490.11565 C1837.2292,489.37274 1838.5806,489.32143 1838.9804,489.96825 C1839.9449,491.52891 1856.2111,549.12219 1855.8027,549.5306 C1855.6018,549.73156 1849.6014,551.53572 1842.4687,553.53984 C1825.3032,558.36289 1797.1694,561.08592 1782.5,559.34412 L1782.5,559.34412 Z M715.5,558.44401 C713.85,558.22101 708,557.51784 702.5,556.88142 C697,556.24501 687.29332,554.24306 680.9296,552.43264 C612.54995,532.97932 569.8282,476.51192 559.92878,392.5 C558.41175,379.62568 558.4199,343.53388 559.94288,330 C564.3838,290.53615 577.14121,254.83819 596.75209,227 C610.05132,208.12138 631.88872,189.07917 651.54854,179.21753 C676.37691,166.76326 697.96994,162.01066 729.75658,162.00402 C756.16295,161.99851 773.18192,164.69284 793.07754,172.02859 C841.35912,189.83057 880.35777,233.47945 894.46002,285.5 C905.77174,327.22679 905.56975,391.6535 893.99601,433.5 C884.85631,466.54591 869.13228,493.20535 845.2899,516.07921 C821.44722,538.95336 795.10838,551.9144 763,556.57314 C753.54929,557.94438 721.22357,559.21759 715.5,558.44401 L715.5,558.44401 Z M753.4941,480.93001 C775.7865,470.82215 786.56908,448.13939 791.50282,400.97303 C793.38607,382.96925 793.66535,338.20391 792.00175,321 C787.39464,273.35596 775.60498,250.41271 750.78122,240.78284 C737.82539,235.75688 720.01335,237.05605 706.85086,243.98701 C684.45414,255.78042 674.33147,280.71717 670.92042,332.5 C668.97516,362.03079 670.76522,401.67129 675.12005,425.5 C680.95972,457.45337 690.16752,471.80253 710.24549,480.2384 C719.66416,484.1957 724.56923,484.98465 736.56584,484.47184 C745.14465,484.10514 747.64547,483.5819 753.4941,480.93001 L753.4941,480.93001 Z M11.016892,226.48877 C9.4199662,213.42385 6.3991697,201.55626 2.8198543,194.28564 C1.0112164,190.61177 0.068339693,187.57946 0.59203101,187.12091 C1.6909825,186.15866 86.818379,163 89.256511,163 C91.757467,163 97.497374,175.0405 100.49331,186.57123 C101.87199,191.87748 103,197.06969 103,198.10948 C103,199.14926 103.3375,199.99008 103.75,199.97796 C104.1625,199.96583 108.55,196.56906 113.5,192.42958 C132.1563,176.82808 156.87498,166.31156 180.61669,163.8749 C206.58932,161.20927 229.98774,165.09252 248.7863,175.18846 C260.82003,181.65129 275.14462,193.73561 282.77432,203.86099 L288.77085,211.81899 L292.63543,207.80069 C301.96946,198.09536 320.34658,184.22173 333.25023,177.13893 C344.28401,171.08251 359.9077,166.1693 375.1602,163.95943 C388.846,161.97655 415.83871,163.18792 429,166.37562 C443.55498,169.90088 456.0691,175.20622 465.49065,181.84577 C484.82443,195.47066 492.16776,207.42185 497.22921,233.5 C499.34167,244.38402 499.36794,246.11577 499.721,397.75 L500.07782,551 L402,551 L402,416.72377 C402,330.39936 401.63077,279.42144 400.96607,273.97377 C398.53542,254.05285 393.92312,248.23986 378.87871,246.13652 C361.33674,243.68401 336.64587,253.17437 314.19193,271 L306.00425,277.5 L306,551 L211.07436,551 C205.26364,460.344 219.07833,361.41311 208.78688,271.88607 C205.15513,254.30595 198.87815,247.88323 183.5,246.01206 C165.54179,243.82697 141.09982,252.12621 120.21625,267.5 L112.06593,273.5 L112,551 L14,551 C10.614591,443.669 20.058224,333.29248 11.016892,226.48877 L11.016892,226.48877 Z M947.12306,487.5 L1124.6977,242.5 L962,241.98831 L962,171 L1245,171 L1244.9963,239.5 C1189.6916,319.76441 1132.8883,399.00443 1078,479.55616 L1252.1348,480 L1251.4255,482.25 L1228.2309,550.5 L947,551.00692 L947.12306,487.5 L947.12306,487.5 Z M1318,176.0381 L1320.25,175.52423 C1352.0426,170.2553 1383.9342,165.60215 1415.75,160.47626 L1419,159.90937 L1419,551 L1318,551 L1318,176.0381 L1318,176.0381 Z M1361.5,125.85811 C1337.3856,123.45213 1316.2844,105.25217 1310.0608,81.491343 C1301.4204,48.503285 1318.7591,15.666577 1350.2677,5.3459461 C1356.2188,3.3966458 1359.5232,3 1369.811,3 C1389.1958,3 1400.3051,7.3740913 1412.8942,19.963141 C1424.9942,32.063136 1430.2492,45.359095 1430.2993,64 C1430.3507,83.184626 1425.3295,95.7204 1412.4045,108.67559 C1399.0238,122.08753 1381.8407,127.88757 1361.5,125.85811 L1361.5,125.85811 Z" id="path2320"></path>
            </g>
        </g>
    </g>
</svg>